<svg width="19" height="16" viewBox="0 0 19 16" fill="none" xmlns="http://www.w3.org/2000/svg">
<path fill-rule="evenodd" clip-rule="evenodd" d="M11.5564 8.83869C10.9544 8.16584 10.1177 7.78957 9.04647 7.70989C10.0026 7.45093 10.6932 7.07245 11.1314 6.56117C11.5697 6.04989 11.7822 5.37925 11.7822 4.52269C11.7931 3.89519 11.6422 3.27545 11.3439 2.72325C11.0422 2.20093 10.6007 1.77321 10.069 1.48821C9.58431 1.22261 9.00663 1.03005 8.32935 0.917173C7.65207 0.804293 6.46351 0.757812 4.76367 0.757812H0.626953V15.8439H4.88983C6.60295 15.8439 7.83799 15.7863 8.59495 15.6713C9.35191 15.5517 9.98271 15.3525 10.494 15.0803C11.1091 14.7617 11.6154 14.267 11.9482 13.6593C12.2868 13.0485 12.4594 12.338 12.4594 11.5279C12.4594 10.4057 12.1606 9.50933 11.5564 8.83869ZM4.45159 4.09773H5.33471C6.35727 4.09773 7.04341 4.21283 7.39311 4.44301C7.74503 4.67541 7.91767 5.07381 7.91767 5.63821C7.91767 6.20261 7.72511 6.56781 7.35327 6.79357C6.98143 7.01933 6.28423 7.12557 5.26831 7.12557H4.45159V4.09773ZM7.95751 12.7497C7.55247 12.9953 6.86191 13.1149 5.89247 13.1149H4.45159V9.82805H5.95223C6.94823 9.82805 7.63879 9.95421 8.00399 10.2065C8.36919 10.4589 8.56175 10.8971 8.56175 11.5345C8.56175 12.172 8.36255 12.5106 7.95087 12.7563L7.95751 12.7497ZM16.8286 12.0259C15.7724 12.0259 14.9162 12.8821 14.9162 13.9382C14.9162 14.9944 15.7724 15.8505 16.8286 15.8505C17.8847 15.8505 18.7409 14.9944 18.7409 13.9382C18.7409 12.8821 17.8847 12.0259 16.8286 12.0259ZM18.4886 0.757812H15.1686V10.8187H18.4886V0.757812Z" fill="#00A4DE"/>
</svg>
